<?xml version="1.0" encoding="UTF-8"?>
<!DOCTYPE svg PUBLIC "-//W3C//DTD SVG 1.1//EN" "http://www.w3.org/Graphics/SVG/1.1/DTD/svg11.dtd">
<!-- Creator: CorelDRAW (Versión de evaluación) -->
<svg xmlns="http://www.w3.org/2000/svg" xml:space="preserve" width="0.166665in" height="0.166665in" version="1.1" style="shape-rendering:geometricPrecision; text-rendering:geometricPrecision; image-rendering:optimizeQuality; fill-rule:evenodd; clip-rule:evenodd"
viewBox="0 0 7.75 7.75"
 xmlns:xlink="http://www.w3.org/1999/xlink"
 xmlns:xodm="http://www.corel.com/coreldraw/odm/2003">
 <defs>
  <style type="text/css">
   <![CDATA[
    .fil4 {fill:#A0D8F1}
    .fil5 {fill:#C40606}
    .fil1 {fill:#D5D7DB}
    .fil2 {fill:#E20D08}
    .fil0 {fill:#E2E7EB}
    .fil3 {fill:#FBC400}
   ]]>
  </style>
 </defs>
 <g id="Capa_x0020_1">
  <metadata id="CorelCorpID_0Corel-Layer"/>
  <g id="_1643343478800">
   <path class="fil0" d="M5 1.58c1.08,-0.04 1.57,1.29 0.83,1.96 -0.71,0.64 -1.71,0.23 -1.89,-0.56 -0.04,-0.16 -0.01,-0.26 -0.03,-0.41l-0.4 0.42c-0.22,0.26 -0.4,0.46 -0.62,0.76 -0.09,0.11 -0.15,0.21 -0.24,0.32 -0.08,0.1 -0.15,0.22 -0.23,0.33 -0.09,0.13 -0.36,0.56 -0.41,0.69l0.92 0.94 0.09 0.09c0.42,-0.05 1.34,-0.44 1.72,-0.68l0.49 -0.31 0.35 -0.27c0.12,-0.1 0.22,-0.19 0.33,-0.3 0.21,-0.21 0.55,-0.59 0.72,-0.84 0.05,-0.07 0.08,-0.12 0.13,-0.19 0.05,-0.06 0.08,-0.13 0.12,-0.2l0.12 -0.2c0.02,-0.04 0.03,-0.05 0.06,-0.1 0.1,-0.18 0.3,-0.62 0.34,-0.78 -0.07,-0.03 -0.15,-0.09 -0.22,-0.14 -0.37,-0.23 -0.93,-0.75 -1.2,-1.09 -0.02,-0.02 -0.01,-0.02 -0.04,-0.05 -0,-0 -0.02,-0.02 -0.02,-0.02 -0,-0 -0.01,-0 -0.01,-0.01 -0,-0 -0.01,-0 -0.01,-0.01 -0.07,0.02 -0.38,0.25 -0.46,0.3 -0.08,0.06 -0.15,0.11 -0.23,0.17 -0.07,0.05 -0.16,0.11 -0.21,0.17z"/>
   <path class="fil1" d="M2.63 2.53c-0.03,0.07 -0.12,0.17 -0.17,0.25 -0.05,0.08 -0.09,0.16 -0.15,0.25 -0.24,0.38 -0.63,1.3 -0.68,1.71l0.09 0.09c0.1,0.07 0.18,0.2 0.28,0.26 0.05,-0.13 0.32,-0.56 0.41,-0.69 0.08,-0.11 0.15,-0.23 0.23,-0.33 0.09,-0.11 0.15,-0.21 0.24,-0.32 0.23,-0.3 0.41,-0.49 0.62,-0.76l0.4 -0.42c0.03,-0.03 0.04,-0.16 0.06,-0.21 0.14,-0.44 0.55,-0.75 1.04,-0.78 0.05,-0.06 0.14,-0.12 0.21,-0.17 0.08,-0.06 0.15,-0.11 0.23,-0.17 0.07,-0.05 0.39,-0.29 0.46,-0.3l0 -0.02c-0.09,-0.1 -0.31,-0.41 -0.38,-0.55 -0.14,0.01 -0.72,0.3 -0.87,0.39 -0.04,0.02 -0.06,0.03 -0.1,0.05 -0.03,0.02 -0.07,0.04 -0.1,0.06 -0.61,0.37 -1.06,0.77 -1.54,1.31l-0.28 0.35z"/>
   <path class="fil2" d="M1.08 4.63c0.03,-0.36 0.21,-0.96 0.33,-1.27 0.14,-0.35 0.22,-0.5 0.39,-0.81 0.04,-0.08 0.12,-0.17 0.15,-0.24 -0.4,-0.04 -0.71,0.02 -1.08,0.22 -0.1,0.06 -0.3,0.2 -0.37,0.29 -0.19,0.22 -0.22,0.24 -0.34,0.5 -0.05,0.11 -0.1,0.25 -0.12,0.38 -0.02,0.11 -0.03,0.21 -0.03,0.31l0 0.1c0.01,0.33 0.1,0.62 0.3,0.92 0.04,0.05 0.11,0.16 0.15,0.19 0.07,-0.29 0.19,-0.48 0.49,-0.57 0.05,-0.02 0.1,-0.01 0.14,-0.03z"/>
   <path class="fil2" d="M3.12 6.67c-0.03,0.07 -0,0.1 -0.07,0.24 -0.12,0.24 -0.27,0.33 -0.54,0.39 0.05,0.08 0.3,0.23 0.39,0.27 0.24,0.12 0.47,0.18 0.72,0.18l0.1 0c0.1,-0 0.2,-0.01 0.31,-0.03 0.13,-0.02 0.26,-0.07 0.38,-0.12 0.04,-0.02 0.08,-0.03 0.12,-0.06 0.07,-0.04 0.13,-0.08 0.2,-0.13l0.18 -0.15c0.04,-0.03 0.13,-0.14 0.16,-0.17 0.26,-0.36 0.31,-0.52 0.37,-0.96 0.02,-0.12 0,-0.22 -0.01,-0.32 -0.08,0.03 -0.17,0.11 -0.25,0.15 -0.08,0.05 -0.17,0.09 -0.25,0.14 -0.44,0.25 -1.31,0.53 -1.81,0.58z"/>
   <path class="fil3" d="M2.92 6.03l-0.92 -0.94c-0.1,-0.05 -0.18,-0.19 -0.28,-0.26 -0.24,0.18 -0.33,0.22 -0.54,0.47 -0.12,0.15 -0.33,0.5 -0.34,0.69l0.44 -0.14c-0.01,0.02 -0.43,0.72 -0.44,1.04 0.18,-0 0.63,-0.2 0.8,-0.3 0.04,-0.02 0.07,-0.04 0.12,-0.07 0.04,-0.02 0.08,-0.06 0.13,-0.07 -0.02,0.07 -0.04,0.15 -0.07,0.22 -0.02,0.08 -0.04,0.16 -0.07,0.22 0.22,-0.01 0.65,-0.28 0.82,-0.45 0.19,-0.19 0.2,-0.24 0.32,-0.39l0.03 -0.03z"/>
   <path class="fil2" d="M5.89 0.91l0 0.02c0,0 0.01,0 0.01,0.01 0,0 0.01,0 0.01,0.01 0,0 0.02,0.02 0.02,0.02 0.03,0.03 0.02,0.02 0.04,0.05 0.27,0.34 0.83,0.86 1.2,1.09 0.07,0.05 0.15,0.11 0.22,0.14l0.01 -0.02c0.09,-0.19 0.23,-0.81 0.27,-1 0.07,-0.39 0.08,-0.76 0.08,-1.22l-0.03 0c-0.06,0.04 -0.39,0.15 -0.5,0.2 -0.48,0.21 -0.69,0.33 -1.13,0.59 -0.06,0.04 -0.14,0.1 -0.21,0.13z"/>
   <path class="fil2" d="M4.28 2.8c-0.05,-0.45 0.29,-0.81 0.67,-0.85 0.45,-0.05 0.81,0.29 0.85,0.68 0.05,0.45 -0.3,0.81 -0.69,0.84 -0.44,0.04 -0.79,-0.29 -0.84,-0.67zm-0.38 -0.24c0.02,0.15 -0.01,0.25 0.03,0.41 0.18,0.79 1.18,1.21 1.89,0.56 0.74,-0.67 0.25,-2 -0.83,-1.96 -0.49,0.03 -0.9,0.34 -1.04,0.78 -0.02,0.05 -0.03,0.18 -0.06,0.21z"/>
   <path class="fil4" d="M4.28 2.8c0.04,0.38 0.39,0.72 0.84,0.67 0.39,-0.04 0.74,-0.4 0.69,-0.84 -0.04,-0.39 -0.4,-0.74 -0.85,-0.68 -0.39,0.05 -0.72,0.4 -0.67,0.85z"/>
   <path class="fil5" d="M3.01 6.11c0.07,0.17 0.11,0.31 0.11,0.56 0.5,-0.04 1.37,-0.33 1.81,-0.58 0.09,-0.05 0.17,-0.09 0.25,-0.14 0.08,-0.05 0.18,-0.12 0.25,-0.15 0,-0.11 -0.04,-0.28 -0.08,-0.37 -0.02,-0.05 -0.04,-0.11 -0.07,-0.16 -0.02,-0.05 -0.06,-0.1 -0.07,-0.15l-0.49 0.31c-0.38,0.24 -1.3,0.63 -1.72,0.68z"/>
   <path class="fil5" d="M1.08 4.63c0.23,0 0.4,0.03 0.56,0.11 0.05,-0.42 0.44,-1.33 0.68,-1.71 0.05,-0.08 0.1,-0.17 0.15,-0.25 0.05,-0.08 0.13,-0.18 0.17,-0.25 -0.06,-0.02 -0.09,-0.04 -0.15,-0.07 -0.05,-0.03 -0.11,-0.05 -0.16,-0.07 -0.08,-0.03 -0.26,-0.08 -0.37,-0.08 -0.03,0.07 -0.1,0.17 -0.15,0.24 -0.17,0.31 -0.25,0.46 -0.39,0.81 -0.13,0.31 -0.3,0.91 -0.33,1.27z"/>
   <path class="fil5" d="M5.51 0.36c0.07,0.14 0.29,0.45 0.38,0.55 0.07,-0.02 0.15,-0.09 0.21,-0.13 0.44,-0.26 0.65,-0.38 1.13,-0.59 0.1,-0.05 0.44,-0.16 0.5,-0.2l-0.62 0.01c-0.43,0.02 -1.12,0.16 -1.53,0.32l-0.06 0.03z"/>
  </g>
 </g>
</svg>
