<?xml version="1.0" encoding="UTF-8"?>
<!DOCTYPE svg PUBLIC "-//W3C//DTD SVG 1.1//EN" "http://www.w3.org/Graphics/SVG/1.1/DTD/svg11.dtd">
<!-- Creator: CorelDRAW (Versión de evaluación) -->
<svg xmlns="http://www.w3.org/2000/svg" xml:space="preserve" width="0.1695in" height="0.153677in" version="1.1" style="shape-rendering:geometricPrecision; text-rendering:geometricPrecision; image-rendering:optimizeQuality; fill-rule:evenodd; clip-rule:evenodd"
viewBox="0 0 18.7 16.95"
 xmlns:xlink="http://www.w3.org/1999/xlink"
 xmlns:xodm="http://www.corel.com/coreldraw/odm/2003">
 <defs>
  <style type="text/css">
   <![CDATA[
    .str1 {stroke:#006633;stroke-width:2.94;stroke-linecap:round;stroke-linejoin:round;stroke-miterlimit:22.9256}
    .str0 {stroke:#32BFF2;stroke-width:2.94;stroke-linecap:round;stroke-linejoin:round;stroke-miterlimit:22.9256}
    .fil0 {fill:none}
    .fil1 {fill:#C7EAFB}
   ]]>
  </style>
 </defs>
 <g id="Capa_x0020_1">
  <metadata id="CorelCorpID_0Corel-Layer"/>
  <g>
   <path class="fil0 str0" d="M3.08 2.61l9.65 0c0.89,0 1.61,0.72 1.61,1.61l0 9.65c0,0.89 -0.72,1.61 -1.61,1.61l-9.65 0c-0.89,0 -1.61,-0.72 -1.61,-1.61l0 -9.65c0,-0.89 0.72,-1.61 1.61,-1.61z"/>
   <path id="_1" class="fil1" d="M3.08 2.61l9.65 0c0.89,0 1.61,0.72 1.61,1.61l0 9.65c0,0.89 -0.72,1.61 -1.61,1.61l-9.65 0c-0.89,0 -1.61,-0.72 -1.61,-1.61l0 -9.65c0,-0.89 0.72,-1.61 1.61,-1.61z"/>
  </g>
  <g>
   <path class="fil0 str1" d="M3.63 8.43c0.22,2.07 1.87,4.51 4.64,2.07 2.56,-2.26 5.94,-9.51 8.96,-9"/>
  </g>
 </g>
</svg>
